<?xml version="1.0" standalone="no"?><!DOCTYPE svg PUBLIC "-//W3C//DTD SVG 1.1//EN" "http://www.w3.org/Graphics/SVG/1.1/DTD/svg11.dtd"><svg t="1682045245231" class="icon" viewBox="0 0 1024 1024" version="1.1" xmlns="http://www.w3.org/2000/svg" p-id="51856" xmlns:xlink="http://www.w3.org/1999/xlink" width="64" height="64"><path d="M509.973333 589.013333c0.746667 0 1.493333 0.106667 2.133334 0.106667 8.533333 0 16.533333-4.266667 21.333333-11.413333l81.386667-122.133334 30.4 45.12c4.8 7.04 12.8 11.306667 21.226666 11.306667H793.6c14.186667 0 25.6-11.413333 25.6-25.6s-11.413333-25.6-25.6-25.6H680l-44.053333-65.493333c-4.8-7.04-12.8-11.306667-21.226667-11.306667-8.533333 0-16.533333 4.266667-21.226667 11.413333l-76.8 115.2L432.96 323.2c-4.053333-9.066667-12.906667-14.933333-22.826667-15.146667-10.56-0.106667-19.093333 5.333333-23.466666 14.186667L317.76 460.8h-87.04c-14.186667 0-25.6 11.413333-25.6 25.6s11.413333 25.6 25.6 25.6h102.933333c9.706667 0 18.56-5.546667 22.933334-14.186667l51.84-104.213333 80.426666 180.373333c3.733333 8.426667 11.84 14.293333 21.12 15.04z" fill="#515151" p-id="51857"></path><path d="M537.6 870.4H218.026667c-35.52 0-64.426667-27.52-64.426667-61.226667V214.826667c0-33.813333 28.906667-61.226667 64.426667-61.226667h587.84c35.52 0 64.426667 27.52 64.426666 61.226667v322.24c0 14.186667 11.413333 25.6 25.6 25.6s25.6-11.413333 25.6-25.6V214.826667C921.6 152.853333 869.653333 102.4 805.973333 102.4H218.026667C154.346667 102.4 102.4 152.853333 102.4 214.826667v594.346666C102.4 871.146667 154.346667 921.6 218.026667 921.6H537.6c14.186667 0 25.6-11.413333 25.6-25.6s-11.413333-25.6-25.6-25.6z" fill="#515151" p-id="51858"></path><path d="M965.333333 929.066667l-79.466666-79.466667c22.4-29.973333 35.733333-67.093333 35.733333-107.306667 0-98.773333-80.426667-179.2-179.2-179.2s-179.2 80.426667-179.2 179.2 80.426667 179.2 179.2 179.2c40.213333 0 77.333333-13.333333 107.306667-35.733333L929.066667 965.333333c5.013333 5.013333 11.52 7.466667 18.133333 7.466667s13.12-2.453333 18.133333-7.466667c9.92-10.026667 9.92-26.24 0-36.266666zM614.4 742.4c0-70.613333 57.386667-128 128-128s128 57.386667 128 128-57.386667 128-128 128-128-57.386667-128-128z" fill="#515151" p-id="51859"></path><path d="M484.266667 858.346667m-0.533334 0a0.533333 0.533333 0 1 0 1.066667 0 0.533333 0.533333 0 1 0-1.066667 0Z" fill="#515151" p-id="51860"></path><path d="M853.973333 587.2m-0.533333 0a0.533333 0.533333 0 1 0 1.066667 0 0.533333 0.533333 0 1 0-1.066667 0Z" fill="#515151" p-id="51861"></path></svg>