<?xml version="1.0" standalone="no"?><!DOCTYPE svg PUBLIC "-//W3C//DTD SVG 1.1//EN" "http://www.w3.org/Graphics/SVG/1.1/DTD/svg11.dtd"><svg t="1682044286771" class="icon" viewBox="0 0 1024 1024" version="1.1" xmlns="http://www.w3.org/2000/svg" p-id="25708" xmlns:xlink="http://www.w3.org/1999/xlink" width="64" height="64"><path d="M502.4 554.88a273.28 273.28 0 1 1 273.28-273.28 273.28 273.28 0 0 1-273.28 273.28z m0-483.84a210.56 210.56 0 1 0 210.56 210.56 211.2 211.2 0 0 0-210.56-210.56z" fill="#707070" p-id="25709"></path><path d="M624.64 1015.68h-576v-70.4a453.12 453.12 0 0 1 454.4-453.12 31.36 31.36 0 0 1 0 64 391.04 391.04 0 0 0-390.4 390.4v7.68h512a31.36 31.36 0 0 1 0 64z" fill="#707070" p-id="25710"></path><path d="M974.08 1015.68h-576a31.36 31.36 0 0 1 0-64h512v-7.68a391.04 391.04 0 0 0-390.4-390.4 31.36 31.36 0 0 1 0-64 453.12 453.12 0 0 1 453.12 453.12z" fill="#707070" p-id="25711"></path></svg>