<?xml version="1.0" standalone="no"?><!DOCTYPE svg PUBLIC "-//W3C//DTD SVG 1.1//EN" "http://www.w3.org/Graphics/SVG/1.1/DTD/svg11.dtd"><svg t="1682044101018" class="icon" viewBox="0 0 1024 1024" version="1.1" xmlns="http://www.w3.org/2000/svg" p-id="8444" xmlns:xlink="http://www.w3.org/1999/xlink" width="64" height="64"><path d="M806.7584 897.0752H217.3952a91.0336 91.0336 0 0 1-90.9312-90.88V216.7808a91.0336 91.0336 0 0 1 90.9312-90.88h589.3632a91.0336 91.0336 0 0 1 90.9312 90.88v589.4144a91.0336 91.0336 0 0 1-90.9312 90.88zM217.3952 189.9008a26.9312 26.9312 0 0 0-26.9312 26.88v589.4144a26.9312 26.9312 0 0 0 26.9312 26.88h589.3632a26.9312 26.9312 0 0 0 26.9312-26.88V216.7808a26.9312 26.9312 0 0 0-26.9312-26.88z" fill="#2ecc71" p-id="8445"></path><path d="M734.8224 462.9504h-445.44a32 32 0 0 1 0-64h368.64l-45.2096-45.2096a32 32 0 1 1 45.2608-45.2096l99.84 99.7888a32 32 0 0 1-22.6304 54.6304zM389.12 728.6784a31.8976 31.8976 0 0 1-22.6304-9.3696L266.5472 619.52a32 32 0 0 1 22.6304-54.6304h445.44a32 32 0 1 1 0 64h-368.64l45.2096 45.2096A32 32 0 0 1 389.12 728.6784z" fill="#2ecc71" p-id="8446"></path></svg>