<?xml version="1.0" standalone="no"?><!DOCTYPE svg PUBLIC "-//W3C//DTD SVG 1.1//EN" "http://www.w3.org/Graphics/SVG/1.1/DTD/svg11.dtd"><svg t="1682493859922" class="icon" viewBox="0 0 1024 1024" version="1.1" xmlns="http://www.w3.org/2000/svg" p-id="5848" xmlns:xlink="http://www.w3.org/1999/xlink" width="128" height="128"><path d="M565.2 521.9c76.2-23 132.1-97.6 132.1-186.2 0-106.9-81.3-193.5-181.6-193.5s-181.6 86.6-181.6 193.5c0 87.6 54.6 161.6 129.5 185.4-142.2 23.1-250.8 146.5-250.8 295.3 0 2.9 0 5.8 0.1 8.7 0.9 31.5 26.5 56.7 58.1 56.7h482.1c31.2 0 57-24.6 58-55.8 0.1-3.2 0.2-6.4 0.2-9.6-0.1-147.1-106.2-269.4-246.1-294.5z" fill="#E74C3C" p-id="5849"></path></svg>