<?xml version="1.0" standalone="no"?><!DOCTYPE svg PUBLIC "-//W3C//DTD SVG 1.1//EN" "http://www.w3.org/Graphics/SVG/1.1/DTD/svg11.dtd"><svg t="1682044475385" class="icon" viewBox="0 0 1024 1024" version="1.1" xmlns="http://www.w3.org/2000/svg" p-id="31688" xmlns:xlink="http://www.w3.org/1999/xlink" width="64" height="64"><path d="M783.68 171.626667l160.426667 276.266666a128 128 0 0 1 0.170666 128.298667l-160.64 278.272a128 128 0 0 1-110.869333 64H351.232a128 128 0 0 1-110.848-64l-160.64-278.272a128 128 0 0 1 0.149333-128.277333l160.426667-276.266667a128 128 0 0 1 110.698667-63.744h321.962666a128 128 0 0 1 110.698667 63.722667z m-110.698667 0.277333H351.018667a64 64 0 0 0-55.338667 31.872l-160.448 276.266667a64 64 0 0 0-0.085333 64.149333l160.661333 278.272a64 64 0 0 0 55.424 32h321.536a64 64 0 0 0 55.424-32l160.64-278.272a64 64 0 0 0-0.064-64.149333l-160.426667-276.266667a64 64 0 0 0-55.36-31.872zM512 650.666667a138.666667 138.666667 0 1 1 0-277.333334 138.666667 138.666667 0 0 1 0 277.333334z m0-64a74.666667 74.666667 0 1 0 0-149.333334 74.666667 74.666667 0 0 0 0 149.333334z" fill="#2c2c2c" p-id="31689"></path></svg>