<?xml version="1.0" standalone="no"?><!DOCTYPE svg PUBLIC "-//W3C//DTD SVG 1.1//EN" "http://www.w3.org/Graphics/SVG/1.1/DTD/svg11.dtd"><svg t="1682480681064" class="icon" viewBox="0 0 1024 1024" version="1.1" xmlns="http://www.w3.org/2000/svg" p-id="5975" width="128" height="128" xmlns:xlink="http://www.w3.org/1999/xlink"><path d="M895.967031 930.643435V1024H162.906006v-84.50889C70.781395 925.34763 0 846.26254 0 749.962084c0-106.300088 85.964837-192.456918 191.992935-192.456918h639.976451c106.028098 0 191.992935 86.15683 191.992935 192.456918 0 83.644922-53.598028 154.170327-127.99529 180.681351zM279.253724 697.484015a58.317854 58.317854 0 1 0 58.189859 58.317854 58.253856 58.253856 0 0 0-58.189859-58.317854z m232.727437 0a58.317854 58.317854 0 1 0 58.173859 58.317854A58.253856 58.253856 0 0 0 511.981161 697.484015z m232.727436 0a58.317854 58.317854 0 1 0 58.173859 58.317854 58.253856 58.253856 0 0 0-58.173859-58.317854zM271.797999 326.505666l-48.158228-60.573771c4.687828-3.80786 12.799529-9.903636 24.319105-17.503356a549.163792 549.163792 0 0 1 63.565661-36.222668c167.321843-81.373006 348.995158-79.245084 517.96494 62.829689l-49.118192 59.741801c-142.890742-120.12358-292.94922-121.867516-435.519974-52.526067a472.638608 472.638608 0 0 0-54.653989 31.150854q-9.423653 6.23977-18.399323 13.103518z m114.827774 42.782425c108.604004-52.798057 227.399632-51.422108 337.251591 40.974493l-49.118193 59.7738c-83.756918-70.39741-170.969709-71.48537-254.854622-30.686871a276.517825 276.517825 0 0 0-32.238814 18.367324c-5.359803 3.567869-8.847674 6.127775-10.287621 7.295732l-48.142229-60.557772c11.551575-9.327657 31.054857-22.351178 57.389888-35.166706z m-9.247659 95.740477z m159.994112-387.185752C445.039624 76.834853 355.538917 100.465983 272.677966 140.832498a658.407773 658.407773 0 0 0-76.205196 43.390403c-7.679717 5.087813-14.39947 9.823639-19.983264 13.967486-3.199882 2.415911-5.311805 4.015852-6.159774 4.703827l-48.142228-60.637769c6.031778-4.911819 16.863379-12.959523 32.094819-23.071151a734.644967 734.644967 0 0 1 85.084869-48.478216C332.179777 25.636737 432.960068-1.146278 538.300192 0.037679c136.186989 1.599941 268.790109 50.302149 392.641552 154.474315l-49.134192 59.757802C771.587608 121.633204 656.087858 79.202766 537.420225 77.826816z" fill="#bfbfbf" p-id="5976"></path></svg>