<?xml version="1.0" standalone="no"?><!DOCTYPE svg PUBLIC "-//W3C//DTD SVG 1.1//EN" "http://www.w3.org/Graphics/SVG/1.1/DTD/svg11.dtd"><svg t="1682044840795" class="icon" viewBox="0 0 1024 1024" version="1.1" xmlns="http://www.w3.org/2000/svg" p-id="41542" xmlns:xlink="http://www.w3.org/1999/xlink" width="64" height="64"><path d="M938.666667 512a42.666667 42.666667 0 0 0-24.533334-41.6l-128-59.733333 128-59.733334A42.666667 42.666667 0 0 0 938.666667 309.333333a42.666667 42.666667 0 0 0-24.533334-41.6l-384-178.56a49.92 49.92 0 0 0-38.4 0l-384 178.56A42.666667 42.666667 0 0 0 85.333333 309.333333a42.666667 42.666667 0 0 0 24.533334 41.6l128 59.733334-128 59.733333A42.666667 42.666667 0 0 0 85.333333 512a42.666667 42.666667 0 0 0 24.533334 42.666667l128 59.733333-128 59.733333a47.573333 47.573333 0 0 0 0 83.2l384 178.56a49.92 49.92 0 0 0 38.4 0l384-178.56a47.573333 47.573333 0 0 0 0-83.2l-128-59.733333 128-59.733333A42.666667 42.666667 0 0 0 938.666667 512zM512 174.293333l289.28 135.04L512 444.16 222.72 309.333333zM801.28 714.666667L512 849.706667 222.72 714.666667l116.266667-53.333334 153.813333 71.68a49.92 49.92 0 0 0 38.4 0L685.013333 661.333333zM512 646.826667L222.72 512l116.266667-54.186667 153.813333 71.68a49.92 49.92 0 0 0 38.4 0l153.813333-71.68L801.28 512z" p-id="41543"></path></svg>